<svg xmlns="http://www.w3.org/2000/svg" viewBox="0 0 32 32">
  <rect width="32" height="32" rx="4" fill="#1a1b2e"/>
  <!-- C -->
  <rect x="4" y="6" width="3" height="3" fill="#7dd3fc"/>
  <rect x="7" y="6" width="3" height="3" fill="#7dd3fc"/>
  <rect x="10" y="6" width="3" height="3" fill="#7dd3fc"/>
  <rect x="4" y="9" width="3" height="3" fill="#7dd3fc"/>
  <rect x="4" y="12" width="3" height="3" fill="#7dd3fc"/>
  <rect x="4" y="15" width="3" height="3" fill="#7dd3fc"/>
  <rect x="4" y="18" width="3" height="3" fill="#7dd3fc"/>
  <rect x="7" y="18" width="3" height="3" fill="#7dd3fc"/>
  <rect x="10" y="18" width="3" height="3" fill="#7dd3fc"/>
  <!-- B -->
  <rect x="16" y="6" width="3" height="3" fill="#4ade80"/>
  <rect x="19" y="6" width="3" height="3" fill="#4ade80"/>
  <rect x="22" y="6" width="3" height="3" fill="#4ade80"/>
  <rect x="16" y="9" width="3" height="3" fill="#4ade80"/>
  <rect x="22" y="9" width="3" height="3" fill="#4ade80"/>
  <rect x="16" y="12" width="3" height="3" fill="#4ade80"/>
  <rect x="19" y="12" width="3" height="3" fill="#4ade80"/>
  <rect x="22" y="12" width="3" height="3" fill="#4ade80"/>
  <rect x="16" y="15" width="3" height="3" fill="#4ade80"/>
  <rect x="25" y="15" width="3" height="3" fill="#4ade80"/>
  <rect x="16" y="18" width="3" height="3" fill="#4ade80"/>
  <rect x="19" y="18" width="3" height="3" fill="#4ade80"/>
  <rect x="22" y="18" width="3" height="3" fill="#4ade80"/>
  <!-- Pixel dots -->
  <rect x="4" y="24" width="2" height="2" fill="#7dd3fc" opacity="0.4"/>
  <rect x="10" y="26" width="2" height="2" fill="#4ade80" opacity="0.4"/>
  <rect x="20" y="24" width="2" height="2" fill="#4ade80" opacity="0.3"/>
  <rect x="26" y="26" width="2" height="2" fill="#7dd3fc" opacity="0.3"/>
</svg>
