<?xml version="1.0" encoding="UTF-8" standalone="no"?>
<!-- Created with Inkscape (http://www.inkscape.org/) -->

<svg
   xmlns:dc="http://purl.org/dc/elements/1.1/"
   xmlns:cc="http://creativecommons.org/ns#"
   xmlns:rdf="http://www.w3.org/1999/02/22-rdf-syntax-ns#"
   xmlns:svg="http://www.w3.org/2000/svg"
   xmlns="http://www.w3.org/2000/svg"
   version="1.1"
   width="249.99995"
   height="675.00006"
   id="svg2">
  <defs
     id="defs4" />
  <metadata
     id="metadata7">
    <rdf:RDF>
      <cc:Work
         rdf:about="">
        <dc:format>image/svg+xml</dc:format>
        <dc:type
           rdf:resource="http://purl.org/dc/dcmitype/StillImage" />
        <dc:title></dc:title>
      </cc:Work>
    </rdf:RDF>
  </metadata>
  <g
     transform="translate(-79.003663,-345.81945)"
     id="layer1">
    <path
       d="m 204.00359,345.81945 c -2.67612,0 -4.875,0.54807 -4.875,1.21875 0,0.67069 -3.93299,16.50465 -8.75,35.1875 -4.81702,18.68286 -8.75,35.7065 -8.75,37.8125 0,6.11486 -5.78422,4.69592 -28.15625,-6.90625 -22.25026,-11.53901 -28.28125,-13.04318 -28.28125,-7 0,3.98149 9.11162,11.95833 26.96875,23.59375 6.03622,3.93311 13.88711,9.89589 17.4375,13.25 5.84486,5.52171 6.34653,6.8972 5.40625,14.46875 -3.54119,28.51505 -3.46242,38.25648 0.4375,47.09375 3.86941,8.76813 3.86989,8.77364 -0.0312,12.3125 -3.507,3.18131 -3.76532,5.02729 -2.5625,18.1875 0.73642,8.05711 2.08625,18.60996 2.96875,23.4375 0.88249,4.82755 1.35933,9.01496 1.0625,9.3125 -0.29683,0.29753 -4.13217,-4.20119 -8.5,-10 -6.32354,-8.39527 -8.05118,-12.49419 -8.53125,-20.0625 -0.58052,-9.15181 -0.84702,-9.53638 -6.9375,-10.125 -3.80907,-0.36813 -6.3125,-1.68001 -6.3125,-3.3125 0,-1.49099 -0.96917,-4.85723 -2.15625,-7.46875 -2.79024,-6.13837 -13.77634,-8.22156 -21.90625,-4.15625 -6.98459,3.49261 -7.09375,3.52544 -7.09375,0.34375 0,-5.87313 -5.16109,-9.15919 -16.906247,-10.75 -17.188687,-2.32809 -18.486643,-1.1824 -17.25,15.5 0.557006,7.51407 1.505543,14.45225 2.09375,15.40625 0.588207,0.95399 4.103483,2.30253 7.8125,3 3.709025,0.69745 6.75,1.6611 6.75,2.125 0,0.46391 -2.17103,3.1758 -4.8125,6.03125 -3.536456,3.82292 -4.493428,6.50013 -3.625,10.15625 2.069944,8.71457 4.60681,11.90612 10.375,13.0625 4.585997,0.91936 5.735127,2.26323 6.218747,7.25 0.56416,5.81702 1.02308,6.11198 9.375,6.375 7.22957,0.22767 11.53693,2.18846 24.34375,11.03125 8.55809,5.90915 19.71919,15.24168 24.78125,20.75 l 9.1875,10.03125 -10.1875,10.875 c -15.66223,16.70589 -37.24838,30.71578 -49.125,31.90625 -9.23953,0.92613 -9.74916,1.28508 -10.3125,7.09375 -0.48363,4.98676 -1.63275,6.33065 -6.218747,7.25 -5.768189,1.15638 -8.305049,4.34792 -10.375,13.0625 -0.866523,3.6481 0.06822,6.31643 3.5625,10.09375 l 4.75,5.15625 -6.71875,2.21875 c -3.705886,1.22595 -7.215678,2.98898 -7.78125,3.90625 -0.565564,0.91728 -1.474244,7.79843 -2.03125,15.3125 -1.233114,16.63488 0.08774,17.87229 16.9375,15.5625 13.765507,-1.88699 14.953187,-2.47592 17.249997,-8.53125 1.63616,-4.31363 2.04767,-4.41388 7.25,-1.8125 7.92277,3.96174 18.93272,1.7791 21.6875,-4.28125 1.18708,-2.61152 2.15625,-5.94652 2.15625,-7.4375 0,-1.63249 2.53468,-2.97561 6.34375,-3.34375 6.06282,-0.58593 6.36713,-1.0056 7.3125,-10.40625 0.78704,-7.82607 2.92788,-12.4412 10.59375,-22.90625 5.28384,-7.21322 10.32351,-13.125 11.1875,-13.125 2.72553,0 1.78208,42.54895 -1.71875,78.34375 l -3.375,34.4375 -6.125,-1 c -10.1563,-1.65204 -14.46875,1.99227 -14.46875,12.28125 0,12.0161 2.08976,15.12888 13.53125,20.0625 8.63453,3.72323 9.8125,4.92715 9.8125,10.03125 0,4.88434 -0.74507,5.8125 -4.84375,5.8125 -6.1612,0 -6.33902,4.18577 -0.5,12.375 2.40851,3.37795 5.438,9.20671 6.75,12.96875 2.18137,6.25483 2.02361,7.13652 -1.9375,10.21875 -3.65386,2.84318 -8.86802,3.36955 -33.3125,3.40625 -32.59092,0.0488 -34.10356,0.68573 -34.21875,14.09375 -0.0453,5.27875 1.11215,7.99379 4.28125,10.21875 4.86622,3.41648 14.26548,4.05892 16.09375,1.09375 2.09021,-3.39003 27.9494,-2.32441 34.25,1.40625 8.39951,4.97343 10.39512,20.0625 2.65625,20.0625 -2.89069,0 -5.75404,7.82188 -4.375,11.96875 0.43903,1.32019 -0.77856,3.99272 -2.71875,5.9375 -7.8741,7.89269 -1.92733,30.53799 9.125,34.75 4.19958,1.60044 4.875,3.06731 4.875,10.6875 0,4.85494 0.87535,8.84375 1.96875,8.84375 1.0934,0 3.06278,2.39305 4.375,5.34375 1.31223,2.9507 6.52596,9.5284 11.5625,14.625 5.03655,5.0967 10.54238,9.2813 12.25,9.2813 3.92609,0 20.64601,-16.7861 23.8125,-23.9063 1.31222,-2.9507 3.2816,-5.34375 4.375,-5.34375 1.0934,0 1.96875,-3.98881 1.96875,-8.84375 0,-7.62019 0.67542,-9.08706 4.875,-10.6875 11.05233,-4.21201 16.99911,-26.85731 9.125,-34.75 -1.94018,-1.94478 -3.15778,-4.61731 -2.71875,-5.9375 1.37903,-4.14687 -1.48431,-11.96875 -4.375,-11.96875 -7.73887,0 -5.74326,-15.08907 2.65625,-20.0625 6.3006,-3.73066 32.15979,-4.79628 34.25,-1.40625 1.82827,2.96517 11.22754,2.32273 16.09375,-1.09375 3.16912,-2.22496 4.32655,-4.94 4.28125,-10.21875 -0.1152,-13.40802 -1.62784,-14.04495 -34.21875,-14.09375 -24.44448,-0.0366 -29.65864,-0.56307 -33.3125,-3.40625 -3.96111,-3.08223 -4.11887,-3.96392 -1.9375,-10.21875 1.312,-3.76204 4.34149,-9.5908 6.75,-12.96875 5.83902,-8.18923 5.6612,-12.375 -0.5,-12.375 -4.09868,0 -4.84375,-0.92816 -4.84375,-5.8125 0,-5.1041 1.17797,-6.30802 9.8125,-10.03125 11.44149,-4.93362 13.53125,-8.0464 13.53125,-20.0625 0,-10.28898 -4.31245,-13.93329 -14.46875,-12.28125 l -6.125,1 -3.375,-34.4375 c -3.50083,-35.7948 -4.44428,-78.34375 -1.71875,-78.34375 0.86399,0 5.90366,5.91178 11.1875,13.125 7.66587,10.46505 9.80672,15.08018 10.59375,22.90625 0.94538,9.40065 1.24968,9.82032 7.3125,10.40625 3.80907,0.36814 6.34375,1.71126 6.34375,3.34375 0,1.49098 0.96917,4.82598 2.15625,7.4375 2.75478,6.06035 13.76474,8.24299 21.6875,4.28125 5.20233,-2.60138 5.61383,-2.50113 7.25,1.8125 2.29679,6.05533 3.4845,6.64426 17.25,8.53125 16.84984,2.30979 18.17061,1.07238 16.9375,-15.5625 -0.55701,-7.51407 -1.46569,-14.39522 -2.03125,-15.3125 -0.56557,-0.91727 -4.07538,-2.6803 -7.78125,-3.90625 l -6.71875,-2.21875 4.75,-5.15625 c 3.49435,-3.77732 4.42901,-6.44565 3.5625,-10.09375 -2.06995,-8.71458 -4.60681,-11.90612 -10.375,-13.0625 -4.58599,-0.91935 -5.73512,-2.26324 -6.21875,-7.25 -0.56333,-5.80867 -1.07298,-6.16762 -10.3125,-7.09375 -11.87663,-1.19047 -33.46277,-15.20036 -49.125,-31.90625 l -10.1875,-10.875 9.1875,-10.03125 c 5.06206,-5.50832 16.22316,-14.84085 24.78125,-20.75 12.80682,-8.84279 17.11418,-10.80358 24.34375,-11.03125 8.35191,-0.26302 8.81085,-0.55798 9.375,-6.375 0.48362,-4.98677 1.63276,-6.33064 6.21875,-7.25 5.7682,-1.15638 8.30505,-4.34793 10.375,-13.0625 0.86843,-3.65612 -0.0885,-6.33333 -3.625,-10.15625 -2.64148,-2.85545 -4.8125,-5.56734 -4.8125,-6.03125 0,-0.4639 3.04097,-1.42755 6.75,-2.125 3.70903,-0.69747 7.22429,-2.04601 7.8125,-3 0.5882,-0.954 1.53675,-7.89218 2.09375,-15.40625 1.23664,-16.6824 -0.0613,-17.82809 -17.25,-15.5 -11.74515,1.59081 -16.90625,4.87687 -16.90625,10.75 0,3.18169 -0.10916,3.14886 -7.09375,-0.34375 -8.12992,-4.06531 -19.116,-1.98212 -21.90625,4.15625 -1.18707,2.61152 -2.15625,5.97776 -2.15625,7.46875 0,1.63249 -2.50343,2.94437 -6.3125,3.3125 -6.09048,0.58862 -6.35698,0.97319 -6.9375,10.125 -0.48007,7.56831 -2.20771,11.66723 -8.53125,20.0625 -4.36783,5.79881 -8.20317,10.29753 -8.5,10 -0.29683,-0.29754 0.18,-4.48495 1.0625,-9.3125 0.8825,-4.82754 2.23233,-15.38039 2.96875,-23.4375 1.20282,-13.16021 0.9445,-15.00619 -2.5625,-18.1875 -3.9012,-3.53886 -3.90078,-3.54437 -0.0312,-12.3125 3.89992,-8.83727 3.97868,-18.5787 0.4375,-47.09375 -0.94028,-7.57155 -0.43861,-8.94704 5.40625,-14.46875 3.55039,-3.35411 11.40128,-9.31689 17.4375,-13.25 17.85714,-11.63542 26.96875,-19.61226 26.96875,-23.59375 0,-6.04318 -6.031,-4.53901 -28.28125,7 -22.37203,11.60217 -28.15625,13.02111 -28.15625,6.90625 0,-2.106 -3.93298,-19.12964 -8.75,-37.8125 -4.81701,-18.68285 -8.75,-34.51681 -8.75,-35.1875 0,-0.67068 -2.19887,-1.21875 -4.875,-1.21875 z m -0.25,5.8125 c 2.07003,-1.13926 20.44315,71.17742 18.5625,73.0625 -1.45938,1.46283 -12.50469,3.65337 -11.1875,2.21875 1.59648,-1.73881 -4.95419,-21.59375 -7.125,-21.59375 -2.01509,0 -8.78172,19.80849 -7.28125,21.3125 1.25405,1.25702 -2.59567,1.14777 -7.8125,-0.21875 -3.95557,-1.03615 -4.16799,-3.33848 -1.34375,-14.71875 1.13552,-4.57556 4.86737,-19.75132 8.28125,-33.71875 3.4139,-13.96743 6.96549,-25.826 7.90625,-26.34375 z m -72.125,55.78125 c 1.06947,-0.0598 4.41297,1.42216 10.3125,4.71875 6.29663,3.51849 15.83526,8.50231 21.1875,11.09375 20.88619,10.11267 23.16774,11.53694 27,16.75 2.71896,3.69862 4.22899,9.33757 4.78125,18.03125 0.54004,8.5011 0.0842,12.65625 -1.375,12.65625 -1.19515,0 -2.1875,-1.53676 -2.1875,-3.4375 0,-1.90074 -3.26707,-8.46413 -7.28125,-14.5625 -5.82475,-8.84901 -11.79085,-14.14506 -29.53125,-26.28125 -16.59424,-11.35212 -25.25907,-18.8373 -22.90625,-18.96875 z m 144.75,0 c 2.35282,0.13145 -6.312,7.61663 -22.90625,18.96875 -17.7404,12.13619 -23.7065,17.43224 -29.53125,26.28125 -4.01418,6.09837 -7.28125,12.66176 -7.28125,14.5625 0,1.90074 -0.99235,3.4375 -2.1875,3.4375 -3.84911,0 -1.12422,-24.52468 3.40625,-30.6875 3.83226,-5.21306 6.11381,-6.63733 27,-16.75 5.35224,-2.59144 14.89087,-7.57526 21.1875,-11.09375 5.89953,-3.29659 9.24304,-4.7785 10.3125,-4.71875 z m -72.78125,12.9375 c 0.65105,-0.087 1.33315,0.81128 2.65625,2.625 1.49571,2.05033 2.46709,5.03835 2.15625,6.65625 -0.76422,3.97764 -7.07599,4.98179 -8.46875,1.34375 -0.61441,-1.60492 -0.0438,-4.88933 1.25,-7.3125 1.14449,-2.14354 1.7552,-3.22548 2.40625,-3.3125 z m 0.59375,24.96875 c 1.87981,0 2.71875,2.36461 2.71875,7.625 0,4.20414 0.4724,8.85274 1.03125,10.3125 0.55884,1.45977 -0.19912,4.33472 -1.6875,6.375 -2.65635,3.64143 -2.74326,3.6338 -4.5625,-0.0625 -2.77804,-5.64434 -0.86039,-24.25 2.5,-24.25 z m -23.25,8.78125 3.46875,7.28125 c 2.95222,6.21269 3.28157,10.20884 2.09375,26.84375 -0.76702,10.7417 -2.05115,19.53125 -2.84375,19.53125 -0.79261,0 -2.82811,-3.56024 -4.53125,-7.90625 -2.41769,-6.16938 -2.73226,-10.26592 -1.375,-18.625 0.95609,-5.88858 1.35566,-11.7626 0.875,-13.0625 -0.48067,-1.29992 -0.16221,-4.99982 0.71875,-8.21875 z m 46.125,0 1.59375,5.84375 c 0.88096,3.21893 1.19942,6.91883 0.71875,8.21875 -0.48066,1.2999 -0.0811,7.17392 0.875,13.0625 1.35726,8.35908 1.04269,12.45562 -1.375,18.625 -1.70314,4.34601 -3.73864,7.90625 -4.53125,7.90625 -0.7926,0 -2.07673,-8.78955 -2.84375,-19.53125 -1.18782,-16.63491 -0.85846,-20.63106 2.09375,-26.84375 z m -30.34375,24.40625 c 0.53851,-0.0127 0.9298,0.8886 1.625,2.6875 1.31522,3.40327 1.58834,3.44357 3.78125,0.4375 2.21773,-3.04004 2.4832,-3.06411 3.65625,0 1.15529,3.01774 1.44501,3.00697 3.84375,-0.28125 2.50403,-3.43255 2.69918,-3.39562 4.8125,0.5625 2.7237,5.10129 2.9237,16.0625 0.28125,16.0625 -1.07045,0 -1.96875,-1.40074 -1.96875,-3.125 0,-1.95478 -1.06227,-2.71646 -2.84375,-2.03125 -1.57139,0.60444 -3.43468,0.18211 -4.125,-0.9375 -0.84421,-1.36914 -1.89792,-1.38646 -3.21875,-0.0625 -1.08007,1.08261 -3.14977,1.50494 -4.625,0.9375 -1.59307,-0.61276 -2.6875,0.23176 -2.6875,2.09375 0,1.72426 -0.8983,3.125 -1.96875,3.125 -2.94757,0 -2.31902,-12.37984 0.84375,-16.6875 1.3563,-1.84725 2.05524,-2.76856 2.59375,-2.78125 z m 10.40625,23.46875 c 1.95972,-0.15031 3.2951,4.51358 2.8125,11.625 -0.609,8.97394 -0.39222,9.52401 3.03125,7.6875 4.17613,-2.24028 4.82782,-7.72645 1.34375,-11.21875 -1.28453,-1.28758 -1.48568,-2.30275 -0.46875,-2.28125 1.01692,0.0215 5.49322,3.74266 9.96875,8.28125 l 8.125,8.25 -3.65625,28.28125 c -4.42913,34.24542 -7.91686,52.6875 -10,52.6875 -2.2932,0 -3.97231,-8.2534 -3.40625,-16.84375 0.27309,-4.14466 0.34362,-16.9608 0.15625,-28.46875 l -0.3125,-20.9375 -5.21875,2 c -3.44907,1.31444 -7.02692,1.31046 -10.6875,0.0312 l -5.53125,-1.90625 -0.3125,20.875 c -0.18737,11.47868 -0.11686,24.26159 0.15625,28.40625 0.27311,4.14467 -0.0461,9.62607 -0.6875,12.1875 -3.13504,12.52048 -6.57421,-0.52258 -12.71875,-48.03125 l -3.65625,-28.28125 8.125,-8.25 c 4.47553,-4.53859 8.95183,-8.25975 9.96875,-8.28125 1.01693,-0.0216 0.81578,0.99367 -0.46875,2.28125 -3.48408,3.4923 -2.83238,8.97848 1.34375,11.21875 3.42347,1.83652 3.64025,1.28644 3.03125,-7.6875 -0.39249,-5.78358 0.24334,-10.21405 1.5625,-11.03125 1.21285,-0.75135 2.57089,-0.22811 3.03125,1.15625 0.65964,1.98361 1.1671,2.0022 2.34375,0.0937 0.74628,-1.21036 1.47176,-1.79365 2.125,-1.84375 z m -109.749997,3.96875 c 1.181716,-0.19046 3.539887,1.59906 6.343747,5.21875 3.74008,4.8283 4.02211,4.91918 2.9375,0.96875 -0.68168,-2.48286 -0.34721,-4.375 0.78125,-4.375 2.453,0 10.60908,26.62087 8.96875,29.28125 -1.50165,2.43548 -1.67355,2.40812 -15.34375,-1.96875 -6.297344,-2.01626 -12.429208,-4.72835 -13.624997,-6.03125 -1.65691,-1.8053 -1.345656,-2.07177 1.25,-1.15625 4.691641,1.6548 4.289922,-1.9617 -0.5,-4.53125 -5.222368,-2.80153 -5.029343,-6.49206 0.25,-4.8125 4.412599,1.40381 3.956336,-0.65194 -1.625,-7.1875 -4.316461,-5.05444 0.276613,-6.02227 6.25,-1.3125 l 5.34375,4.21875 -1.34375,-4.25 c -0.817632,-2.58222 -0.606613,-3.91436 0.3125,-4.0625 z m 213.249997,0 c 0.91911,0.14814 1.13013,1.48028 0.3125,4.0625 l -1.34375,4.25 5.34375,-4.21875 c 5.97339,-4.70977 10.56646,-3.74194 6.25,1.3125 -5.58133,6.53556 -6.0376,8.59131 -1.625,7.1875 5.27936,-1.67956 5.47236,2.01097 0.25,4.8125 -4.69133,2.51666 -5.23755,6.23091 -0.65625,4.46875 2.14228,-0.82401 2.75301,-0.47471 1.84375,1 -0.75607,1.22621 -7.09957,4.01243 -14.125,6.1875 -14.92167,4.61973 -13.7855,4.45714 -15.28125,2.03125 -1.64033,-2.66038 6.51575,-29.28125 8.96875,-29.28125 1.12847,0 1.46294,1.89214 0.78125,4.375 -1.08459,3.95043 -0.80257,3.85955 2.9375,-0.96875 2.80387,-3.61969 5.16203,-5.40921 6.34375,-5.21875 z m -110.90625,2.15625 c -0.41594,0.0458 -0.59375,0.64288 -0.59375,1.84375 0,1.64524 0.65697,3.62388 1.4375,4.40625 0.78054,0.78238 1.74591,0.42141 2.15625,-0.8125 0.41034,-1.23392 -0.21538,-3.21256 -1.40625,-4.40625 -0.59604,-0.59745 -1.07221,-0.95204 -1.40625,-1.03125 -0.0696,-0.0165 -0.12808,-0.007 -0.1875,0 z m 7.96875,0.375 c -0.23264,-0.004 -0.51364,0.0842 -0.78125,0.25 -1.07045,0.66313 -1.9375,2.51553 -1.9375,4.125 0,1.60946 0.86705,2.38189 1.9375,1.71875 1.07045,-0.66313 1.96875,-2.51553 1.96875,-4.125 0,-1.20709 -0.48958,-1.9553 -1.1875,-1.96875 z m -75.6875,7.0625 c 8.63382,0 11.96414,9.86095 4.65625,13.78125 -4.97159,2.66699 -8.72169,-0.16922 -6.8125,-5.15625 1.18977,-3.1078 1.49787,-3.09416 4.09375,0.34375 2.72198,3.60492 2.78365,3.58978 2.84375,-0.46875 0.0696,-4.69841 -3.83673,-6.98674 -7.75,-4.5625 -1.42455,0.8825 -3.1846,5.41114 -3.9375,10.0625 l -1.375,8.4375 -0.25,-8.875 c -0.26534,-9.6681 2.19445,-13.5625 8.53125,-13.5625 z m 144.15625,0 c 2.33095,0 5.29558,1.25108 6.5625,2.78125 1.29768,1.5673 1.95489,6.46672 1.53125,11.21875 -0.72487,8.13044 -0.76602,8.16699 -1.09375,1.25 -0.37758,-7.96866 -4.76068,-13.72197 -9.15625,-12.03125 -1.57468,0.60569 -2.81535,2.98185 -2.78125,5.28125 0.0601,4.05853 0.12176,4.07367 2.84375,0.46875 2.59588,-3.43791 2.904,-3.45155 4.09375,-0.34375 1.90922,4.98702 -1.84091,7.82324 -6.8125,5.15625 -7.38323,-3.96073 -3.95377,-13.78125 4.8125,-13.78125 z m -89.625,4.46875 c -4.2506,0.42202 -4.20292,12.29838 -0.5,39.4375 1.73366,12.70624 2.5383,15.39722 2.875,9.75 1.67937,-28.16673 3.00945,-39.88466 4.4375,-39 4.08469,2.53044 3.23629,-2.86002 -1.09375,-6.9375 -2.39825,-2.25836 -4.30188,-3.39067 -5.71875,-3.25 z m 34.28125,0.0312 c -1.24187,0.0508 -2.77976,1.06916 -5.0625,3.21875 -4.27364,4.02437 -5.19776,9.48433 -1.1875,7 1.72207,-1.0668 3.90797,16.70507 4.28125,34.84375 l 0.25,11.90625 2.5,-14.65625 c 3.4436,-20.20819 3.99382,-38.6247 1.25,-41.375 -0.63706,-0.63857 -1.28613,-0.96797 -2.03125,-0.9375 z m -20.1875,8.375 c -2.27227,-0.28536 -4.15221,5.87859 -2.15625,9.0625 1.13471,1.81006 1.72133,1.54732 2.21875,-0.96875 0.86775,-4.38932 6.21875,-4.46963 6.21875,-0.0937 0,2.41078 0.60095,2.74648 2.15625,1.1875 3.04467,-3.05187 0.24586,-11.21069 -2.9375,-8.5625 -1.66011,1.3811 -3.05793,1.35163 -4.5,-0.0937 -0.33065,-0.33143 -0.67539,-0.49049 -1,-0.53125 z m -53.15625,3.40625 c 1.06692,-0.0111 2.05606,0.11157 2.96875,0.3125 5.02928,1.10722 5.50188,1.8548 4.625,7.4375 -0.82709,5.2657 0.97354,9.05172 11.8125,24.75 7.03801,10.19327 12.7812,19.81691 12.78125,21.40625 4e-5,1.58933 -8.73301,-5.84176 -19.4375,-16.53125 -11.59267,-11.57636 -19.46875,-18.14125 -19.46875,-16.2187 0,4.13616 5.53866,10.67186 26.15625,30.84375 15.72017,15.3803 19.76959,21.46875 14.28125,21.46875 -1.31244,0 -11.7559,-9.66601 -23.1875,-21.46875 -11.43161,-11.8027 -22.16799,-21.46875 -23.875,-21.46875 -1.70701,0 -3.125,0.38479 -3.125,0.84375 0,0.45895 10.73076,11.98707 23.84375,25.59375 13.11299,13.60668 24.59903,26.02075 25.5,27.59375 4.22017,7.36808 -1.68714,3.55144 -15.59375,-10.03125 -19.34968,-18.89899 -39.16511,-31.3021 -47.375,-29.65625 -5.79868,1.16252 -5.8195,1.16272 -5.8125,-8.03125 0.0115,-14.51527 9.12251,-27.06381 24.625,-33.9375 4.23296,-1.87685 8.08049,-2.87287 11.28125,-2.90625 z m 113.0625,0 c 3.20076,0.0334 7.04829,1.02939 11.28125,2.90625 15.50248,6.87369 24.6133,19.42223 24.625,33.9375 0.007,9.19397 -0.0136,9.19377 -5.8125,8.03125 -7.87999,-1.57971 -29.33449,11.46599 -44.34375,26.9375 -12.32634,12.70595 -19.90625,18.50163 -19.90625,15.25 0,-2.109 45.83628,-51.07543 48.9375,-52.28125 2.87701,-1.11862 1.81826,-4.25 -1.4375,-4.25 -1.70701,0 -12.44339,9.666 -23.875,21.46875 -11.4316,11.80274 -21.87506,21.46875 -23.1875,21.46875 -5.48834,0 -1.43892,-6.08845 14.28125,-21.46875 20.61759,-20.17189 26.15625,-26.70759 26.15625,-30.84375 0,-1.92255 -7.87607,4.64229 -19.46875,16.21875 -10.70448,10.68949 -19.43754,18.12058 -19.4375,16.53125 5e-5,-1.58934 5.74324,-11.21298 12.78125,-21.40625 10.83896,-15.69828 12.63959,-19.4843 11.8125,-24.75 -0.87688,-5.5827 -0.40428,-6.33028 4.625,-7.4375 0.91269,-0.20094 1.90183,-0.32362 2.96875,-0.3125 z m -113.5625,3.4375 c -1.00042,0.0297 -2.29147,0.22209 -4,0.5 -12.42389,2.02088 -26.24985,16.07916 -28.59375,29.0625 -1.28259,7.10458 -1.15871,7.3125 4.4375,7.3125 3.18264,0 9.61357,2.59972 14.34375,5.8125 12.24765,8.31872 13.63832,7.22493 3.71875,-2.90625 -4.72414,-4.82491 -9.97118,-8.546 -11.625,-8.28125 -1.95395,0.31283 -3.21061,-1.28462 -3.59375,-4.59375 -0.72572,-6.26801 7.10421,-16.20034 14.9375,-18.9375 6.14453,-2.14705 11.28002,-0.14717 9.03125,3.5 -1.42427,2.30998 13.59542,19.53125 17.03125,19.53125 0.899,0 -0.97944,-3.77802 -4.15625,-8.40625 -3.17679,-4.62822 -6.39395,-11.73948 -7.15625,-15.8125 -1.0154,-5.42534 -1.37374,-6.87027 -4.375,-6.78125 z m 113.375,0 c -2.36906,0.16737 -2.75671,1.80802 -3.6875,6.78125 -0.7623,4.07302 -3.97946,11.18428 -7.15625,15.8125 -3.17681,4.62823 -5.05525,8.40625 -4.15625,8.40625 3.43582,0 18.45552,-17.22127 17.03125,-19.53125 -2.24877,-3.64707 2.88672,-5.64705 9.03125,-3.5 7.83328,2.73716 15.66322,12.66949 14.9375,18.9375 -0.38314,3.30913 -1.63979,4.90658 -3.59375,4.59375 -1.6538,-0.26475 -6.90087,3.45634 -11.625,8.28125 -9.91957,10.13118 -8.5289,11.22497 3.71875,2.90625 4.73017,-3.21278 11.16111,-5.8125 14.34375,-5.8125 5.5962,0 5.72011,-0.20792 4.4375,-7.3125 -2.34389,-12.98334 -16.16985,-27.04162 -28.59375,-29.0625 -2.13566,-0.34739 -3.61066,-0.57608 -4.6875,-0.5 z m -56.59375,0.1563 c -0.39825,0.14698 -0.62587,1.17634 -0.5625,2.71875 0.0934,2.27265 0.53496,2.74376 1.15625,1.1875 0.56222,-1.40829 0.49048,-3.10175 -0.15625,-3.75 -0.16168,-0.16207 -0.30475,-0.20524 -0.4375,-0.15625 z m -97.0625,7.9375 c 1.30908,-0.0137 2.66884,0.16718 4.03125,0.5625 5.5291,1.60433 5.42724,1.69971 -3.0625,2.75 -7.790347,0.96375 -8.827207,1.66549 -9.374997,6.4375 -0.516546,4.49991 0.124743,5.3646 3.906247,5.3125 4.34338,-0.0598 4.35038,-0.16728 0.78125,-2.875 -3.429817,-2.60201 -3.444217,-2.90118 -0.34375,-4.09375 4.80568,-1.84847 8.42867,2.31011 5.75,6.59375 -2.76474,4.42128 -9.18939,5.25253 -12.218747,1.59375 -5.711555,-6.89826 1.367752,-16.1852 10.531247,-16.28125 z m 194.59375,0 c 9.12939,0.10354 16.30725,9.36237 10.65625,16.1875 -3.01701,3.6439 -8.50964,3.62467 -11.5625,-0.0625 -2.82762,-3.41512 -1.30261,-8.8125 2.5,-8.8125 4.50092,0 5.35558,2.3969 1.8125,5.09375 -3.10199,2.36106 -3.01779,2.59935 1.125,2.65625 3.7816,0.052 4.42281,-0.81259 3.90625,-5.3125 -0.54778,-4.77201 -1.58465,-5.47375 -9.375,-6.4375 -8.48974,-1.05029 -8.5916,-1.14567 -3.0625,-2.75 1.35282,-0.39254 2.6958,-0.57729 4,-0.5625 z m -103.8125,2.15625 c 0.33541,-0.11845 0.77332,0.41915 2.59375,2.34375 2.91268,3.07936 3.78125,3.9375 3.78125,3.9375 0,0 0.11437,0.0256 2.6875,-3.125 2.57313,-3.1506 2.68591,-3.72466 3.78125,-2.59375 1.09534,1.13091 1.02016,0.79544 -1.6875,4.5 -2.70766,3.70456 -2.78125,4.15625 -2.78125,4.15625 0,0 -0.11066,0.15053 3.53125,4.0625 3.64191,3.91197 2.69116,3.22472 1.75,4.40625 -0.94116,1.18153 -1.21825,0.91989 -3.40625,-1.53125 -2.188,-2.45114 -3.8598,-4.6838 -3.8125,-4.625 0,0 -1.26668,1.02989 -3.375,4.15625 -2.10832,3.12636 -1.80362,3.13825 -3.03125,2.25 -1.22763,-0.88824 -1.26842,-0.67233 0.625,-3.25 1.89342,-2.57767 3.90625,-5.53125 3.90625,-5.53125 0,0 -1.10567,-1.22545 -3.78125,-4.28125 -2.67558,-3.0558 -2.59074,-3.09905 -1.53125,-4.125 0.39731,-0.38473 0.54875,-0.67893 0.75,-0.75 z m 0.46882,20.15631 c 0.33541,-0.11845 0.77332,0.41915 2.59375,2.34375 2.91268,3.07936 3.75,3.96875 3.75,3.96875 0,0 0.14562,-0.006 2.71875,-3.15625 2.57313,-3.1506 2.68591,-3.72466 3.78125,-2.59375 1.09534,1.13091 1.02016,0.79544 -1.6875,4.5 -2.70766,3.70456 -2.8125,4.15625 -2.8125,4.15625 0,0 -0.11066,0.18178 3.53125,4.09375 3.64191,3.91197 2.72241,3.19347 1.78125,4.375 -0.94116,1.18153 -1.21825,0.95114 -3.40625,-1.5 -2.188,-2.45114 -3.8598,-4.71505 -3.8125,-4.65625 0,0 -1.29793,1.02989 -3.40625,4.15625 -2.10832,3.12636 -1.77237,3.13825 -3,2.25 -1.22763,-0.88824 -1.29967,-0.64108 0.59375,-3.21875 1.89342,-2.57767 3.90625,-5.5625 3.90625,-5.5625 0,0 -1.10567,-1.22545 -3.78125,-4.28125 -2.67558,-3.0558 -2.59074,-3.0678 -1.53125,-4.09375 0.39731,-0.38473 0.58,-0.71015 0.78125,-0.78125 z m 0.1875,20.84375 c 0.33541,-0.11845 0.77332,0.41915 2.59375,2.34375 2.91268,3.07936 3.75,3.96875 3.75,3.96875 0,0 0.14562,-0.006 2.71875,-3.15625 2.57313,-3.1506 2.68591,-3.72466 3.78125,-2.59375 1.09534,1.13091 1.02016,0.79544 -1.6875,4.5 -2.70766,3.70456 -2.8125,4.15625 -2.8125,4.15625 0,0 -0.11066,0.18178 3.53125,4.09375 3.64191,3.91197 2.72241,3.19347 1.78125,4.375 -0.94116,1.18153 -1.21825,0.95114 -3.40625,-1.5 -2.188,-2.45114 -3.8598,-4.71505 -3.8125,-4.65625 0,0 -1.29793,1.02989 -3.40625,4.15625 -2.10832,3.12636 -1.77237,3.13825 -3,2.25 -1.22763,-0.88824 -1.29967,-0.64108 0.59375,-3.21875 1.89342,-2.57767 3.90625,-5.5625 3.90625,-5.5625 0,0 -1.10567,-1.22545 -3.78125,-4.28125 -2.67558,-3.0558 -2.59074,-3.0678 -1.53125,-4.09375 0.39731,-0.38473 0.58,-0.71015 0.78125,-0.78125 z m 5.87493,20.71869 c 3.16769,0 4.80912,1.46096 5.71875,5.09375 1.18938,4.75007 1.51816,4.90044 4.75,1.96875 4.84404,-4.39415 6.33978,-3.94427 4.96875,1.53125 -0.64664,2.5825 -0.19913,6.53536 1,8.78125 3.07469,5.75869 -0.71431,5.17502 -5.4375,-0.84375 -2.13325,-2.71838 -4.40309,-4.11253 -5.03125,-3.09375 -0.62816,1.01878 1.57372,4.56594 4.875,7.875 4.02815,4.03766 5.01385,6 3.03125,6 -1.62484,0 -3.49468,-0.86452 -4.15625,-1.9375 -0.66158,-1.07298 -5.02808,-1.96875 -9.71875,-1.96875 -4.69067,0 -9.05717,0.89577 -9.71875,1.96875 -0.66157,1.07298 -2.53141,1.9375 -4.15625,1.9375 -1.9826,0 -0.9969,-1.96234 3.03125,-6 3.30128,-3.30906 5.50316,-6.85622 4.875,-7.875 -0.62816,-1.01878 -2.898,0.37537 -5.03125,3.09375 -4.72319,6.01877 -8.51219,6.60244 -5.4375,0.84375 1.19913,-2.24589 1.64665,-6.19875 1,-8.78125 -1.37102,-5.47552 0.12471,-5.9254 4.96875,-1.53125 3.23184,2.93169 3.56062,2.78132 4.75,-1.96875 0.90963,-3.63279 2.55106,-5.09375 5.71875,-5.09375 z m -25.15625,20.15625 c 0.0858,-0.0174 0.15304,-0.003 0.1875,0.0312 1.82394,1.82824 -2.0584,6.46115 -26.21875,31.53125 -13.16261,13.65823 -23.43021,25.31839 -22.84375,25.90625 2.36714,2.37272 11.39869,-4.9059 26.4375,-21.34375 15.14429,-16.55312 27.15625,-25.86858 27.15625,-21.03125 0,1.19543 -9.33105,11.66493 -20.71875,23.28125 -22.26494,22.71188 -23.9544,24.82882 -24,29.25 -0.0164,1.59116 9.36769,-6.44864 20.875,-17.84375 11.50732,-11.39513 22.00569,-20.31731 23.34375,-19.8125 1.69858,0.64084 2.4375,-1.46946 2.4375,-7.03125 0,-4.38131 0.6659,-7.96675 1.46875,-7.96875 0.80283,-10e-4 1.17488,4.76538 0.8125,10.59375 -0.36237,5.82837 0.16969,12.08322 1.1875,13.90625 1.41497,2.53439 2.3941,0.16828 4.21875,-10.09375 3.6584,-20.57512 3.49679,-20.25 10.8125,-20.25 7.31571,0 7.15411,-0.32512 10.8125,20.25 1.82466,10.26195 2.80378,12.62814 4.21875,10.09375 1.01781,-1.82303 1.54987,-8.07788 1.1875,-13.90625 -0.36238,-5.82837 0.01,-10.59575 0.8125,-10.59375 0.80284,10e-4 1.46875,3.58744 1.46875,7.96875 0,5.56179 0.73892,7.67209 2.4375,7.03125 1.33806,-0.50481 11.83643,8.41737 23.34375,19.8125 11.50731,11.39511 20.8914,19.43491 20.875,17.84375 -0.0455,-4.42118 -1.73506,-6.53812 -24,-29.25 -11.3877,-11.61622 -20.71875,-22.08577 -20.71875,-23.2812 0,-4.83733 12.01196,4.47813 27.15625,21.03125 15.03881,16.43785 24.07035,23.71647 26.4375,21.34375 0.58645,-0.58786 -9.68114,-12.24802 -22.84375,-25.90625 -24.16034,-25.0701 -28.04269,-29.70301 -26.21875,-31.53125 0.55135,-0.55267 7.87202,5.66092 16.25,13.84375 19.34968,18.89898 39.16511,31.3021 47.375,29.65625 5.79868,-1.16252 5.78925,-1.13147 5.78125,8.0625 -0.0114,14.51527 -9.09127,27.06381 -24.59375,33.9375 -5.69496,2.52517 -10.61648,3.41434 -14.34375,2.59375 -5.04973,-1.11174 -5.54425,-1.86053 -4.53125,-6.9375 0.90526,-4.53697 -0.59675,-8.381 -7.375,-18.875 -8.9765,-13.89731 -20.53763,-27.84375 -23.125,-27.84375 -3.9296,0 -4.00353,37.3839 -0.125,78.03125 2.20122,23.06901 4.02225,45.68987 4.03125,50.25 0.0192,9.62664 5.55636,16.68263 12.3125,15.71875 5.34161,-0.76208 7.49876,-11.34375 2.3125,-11.34375 -2.35333,0 -2.84342,1.09784 -1.875,4.15625 0.94539,2.98569 0.56148,3.87783 -1.34375,3.25 -3.95371,-1.30283 -4.4592,-10.53722 -0.65625,-12 4.82579,-1.8562 10.6875,2.20858 10.6875,7.4375 0,7.77789 -2.0876,10.79165 -10.46875,15.21875 -6.81192,3.5982 -11.74113,4.34399 -32.375,4.75 -24.65366,0.48508 -29.25313,-0.19223 -40.15625,-5.84375 -6.49311,-3.36566 -8.5,-6.70186 -8.5,-14.125 0,-5.22892 5.86171,-9.2937 10.6875,-7.4375 3.80295,1.46278 3.29746,10.69717 -0.65625,12 -1.90523,0.62783 -2.28914,-0.26431 -1.34375,-3.25 0.96842,-3.05841 0.47834,-4.15625 -1.875,-4.15625 -5.18625,0 -3.02912,10.58167 2.3125,11.34375 6.75614,0.96388 12.2932,-6.09211 12.3125,-15.71875 0.009,-4.56013 1.83002,-27.18099 4.03125,-50.25 3.8785,-40.64735 3.80457,-78.03125 -0.125,-78.03125 -2.58737,0 -14.1485,13.94644 -23.125,27.84375 -6.77825,10.494 -8.28026,14.33803 -7.375,18.875 1.013,5.07697 0.51848,5.82576 -4.53125,6.9375 -3.72727,0.82059 -8.6488,-0.0686 -14.34375,-2.59375 -15.50249,-6.87369 -24.58225,-19.42223 -24.59375,-33.9375 -0.007,-9.19397 -0.0176,-9.22502 5.78125,-8.0625 8.2099,1.64585 28.02532,-10.75727 47.375,-29.65625 7.85436,-7.6714 14.77489,-13.61455 16.0625,-13.875 z m -37.84375,36.75 c -1.16125,0.0723 -4.4229,1.92306 -9.78125,5.5625 -4.73018,3.21279 -11.16111,5.8125 -14.34375,5.8125 -5.59552,0 -5.7238,0.21023 -4.40625,7.25 2.05814,10.9967 12.26376,23.55859 22.4375,27.625 9.78338,3.91038 13.0758,2.77649 14.53125,-5 0.74031,-3.95561 3.9482,-10.96553 7.125,-15.59375 3.1768,-4.62823 5.05525,-8.40625 4.15625,-8.40625 -3.43582,0 -18.45553,17.22128 -17.03125,19.53125 2.24877,3.64707 -2.88672,5.6158 -9.03125,3.46875 -7.8333,-2.73716 -15.66322,-12.63826 -14.9375,-18.90625 0.38314,-3.30915 1.63979,-4.90657 3.59375,-4.59375 1.65382,0.26475 6.86961,-3.4876 11.59375,-8.3125 5.57976,-5.69879 7.58679,-8.53048 6.09375,-8.4375 z m 126,0 c -1.49304,-0.093 0.51399,2.73871 6.09375,8.4375 4.72412,4.8249 9.93995,8.57725 11.59375,8.3125 1.95396,-0.31282 3.21061,1.2846 3.59375,4.59375 0.72573,6.26799 -7.10421,16.16909 -14.9375,18.90625 -6.14453,2.14705 -11.28002,0.17842 -9.03125,-3.46875 1.42428,-2.30997 -13.59543,-19.53125 -17.03125,-19.53125 -0.899,0 0.97945,3.77802 4.15625,8.40625 3.1768,4.62822 6.39395,11.73948 7.15625,15.8125 1.35387,7.2338 1.54091,7.3929 8.375,6.28125 12.42391,-2.02087 26.24986,-16.07917 28.59375,-29.0625 1.28261,-7.10459 1.1587,-7.3125 -4.4375,-7.3125 -3.18264,0 -9.61357,-2.59971 -14.34375,-5.8125 -5.35834,-3.63944 -8.62,-5.49018 -9.78125,-5.5625 z m -66.1875,6.21875 c -3.43053,0.0935 -6.02062,0.4875 -6.3125,1 -1.34891,2.36855 -3.43755,138.70315 -2.15625,140.78125 0.74318,1.20533 5.95194,1.83475 12.3125,1.5 l 11.03125,-0.59375 0,-36.0625 c 0,-19.85006 -0.43352,-51.90516 -0.96875,-71.21875 l -1,-35.125 -9.25,-0.25 c -1.27408,-0.0367 -2.51274,-0.0625 -3.65625,-0.0312 z m -3.71875,8.96875 c 0.33541,-0.11845 0.77332,0.41915 2.59375,2.34375 2.91268,3.07936 3.75,3.96875 3.75,3.96875 0,0 0.14562,-0.006 2.71875,-3.15625 2.57313,-3.1506 2.68591,-3.72466 3.78125,-2.59375 1.09534,1.13091 1.02016,0.79544 -1.6875,4.5 -2.70766,3.70456 -2.8125,4.15625 -2.8125,4.15625 0,0 -0.11066,0.18178 3.53125,4.09375 3.64191,3.91197 2.72241,3.19347 1.78125,4.375 -0.94116,1.18153 -1.21825,0.95114 -3.40625,-1.5 -2.188,-2.45114 -3.8598,-4.71505 -3.8125,-4.65625 0,0 -1.29793,1.02989 -3.40625,4.15625 -2.10832,3.12636 -1.77237,3.13825 -3,2.25 -1.22763,-0.88824 -1.29967,-0.64108 0.59375,-3.21875 1.89342,-2.57767 3.90625,-5.5625 3.90625,-5.5625 0,0 -1.10567,-1.22545 -3.78125,-4.28125 -2.67558,-3.0558 -2.59074,-3.0678 -1.53125,-4.09375 0.39731,-0.38473 0.58,-0.71015 0.78125,-0.78125 z m -97.187497,6.25 c 2.388267,0.0535 4.825627,1.31637 6.531247,4.03125 2.69098,4.28326 -0.93807,8.44463 -5.75,6.59375 -3.100456,-1.19257 -3.086062,-1.49174 0.34375,-4.09375 3.56913,-2.70778 3.53088,-2.8153 -0.8125,-2.875 -3.7815,-0.052 -4.391554,0.81258 -3.874997,5.3125 0.55004,4.79165 1.552601,5.47253 9.374997,6.34375 6.34593,0.70676 7.7707,1.37733 5.1875,2.4375 -8.61931,3.53738 -18.812497,-1.43292 -18.812497,-9.15625 0,-5.43071 3.832052,-8.68293 7.8125,-8.59375 z m 208.187497,0 c 3.98045,-0.0892 7.8125,3.16304 7.8125,8.59375 0,2.49023 -1.93342,5.92343 -4.3125,7.59375 -4.8458,3.40216 -10.8279,3.87273 -15.0625,1.1875 -2.00919,-1.27407 -0.32191,-1.99688 5.84375,-2.4375 7.82152,-0.55897 8.72512,-1.124 9.28125,-5.96875 0.51656,-4.49992 -0.0935,-5.3646 -3.875,-5.3125 -4.34337,0.0598 -4.38164,0.16728 -0.8125,2.875 3.42982,2.60201 3.44421,2.90118 0.34375,4.09375 -4.81194,1.85088 -8.44097,-2.31049 -5.75,-6.59375 1.70562,-2.71488 4.14298,-3.97774 6.53125,-4.03125 z m -111,14.5 c 0.33541,-0.11845 0.77332,0.41915 2.59375,2.34375 2.91268,3.07936 3.75,3.96875 3.75,3.96875 0,0 0.14562,-0.006 2.71875,-3.15625 2.57313,-3.1506 2.68591,-3.72466 3.78125,-2.59375 1.09534,1.13091 1.02016,0.79544 -1.6875,4.5 -2.70766,3.70456 -2.8125,4.15625 -2.8125,4.15625 0,0 -0.11066,0.18178 3.53125,4.09375 3.64191,3.91197 2.72241,3.19347 1.78125,4.375 -0.94116,1.18153 -1.21825,0.95114 -3.40625,-1.5 -2.188,-2.45114 -3.8598,-4.71505 -3.8125,-4.65625 0,0 -1.29793,1.02989 -3.40625,4.15625 -2.10832,3.12636 -1.77237,3.13825 -3,2.25 -1.22763,-0.88824 -1.29967,-0.64108 0.59375,-3.21875 1.89342,-2.57767 3.90625,-5.5625 3.90625,-5.5625 0,0 -1.10567,-1.22545 -3.78125,-4.28125 -2.67558,-3.0558 -2.59074,-3.0678 -1.53125,-4.09375 0.39731,-0.38473 0.58,-0.71015 0.78125,-0.78125 z m -75.3125,9.59375 1.34375,8.4375 c 0.75291,4.65137 2.54421,9.18 3.96875,10.0625 3.91328,2.42427 7.8196,0.13592 7.75,-4.5625 -0.0601,-4.0585 -0.15301,-4.07369 -2.875,-0.46875 -2.59588,3.43791 -2.87275,3.45153 -4.0625,0.34375 -1.9092,-4.98708 1.80967,-7.82324 6.78125,-5.15625 4.53789,2.43435 5.38473,7.82551 1.78125,11.4375 -1.28453,1.28758 -4.18956,2.34375 -6.4375,2.34375 -6.3368,0 -8.76533,-3.89439 -8.5,-13.5625 z m 164.4375,0 0.25,8.875 c 0.134,4.88205 -0.80921,9.93118 -2.09375,11.21875 -1.28454,1.28758 -4.1583,2.34375 -6.40625,2.34375 -8.63382,0 -11.96414,-9.86095 -4.65625,-13.78125 4.97159,-2.66699 8.72172,0.16921 6.8125,5.15625 -1.18974,3.10778 -1.49787,3.09416 -4.09375,-0.34375 -2.72203,-3.60494 -2.8148,-3.58975 -2.875,0.46875 -0.0696,4.69841 3.83672,6.98677 7.75,4.5625 1.42454,-0.8825 3.21583,-5.41113 3.96875,-10.0625 z m -173.96875,0.3125 c 0.88288,-0.005 1.489,0.11338 1.75,0.375 2.1813,2.18645 -5.68985,29.53125 -8.5,29.53125 -1.12846,0 -1.46293,-1.89214 -0.78125,-4.375 1.08461,-3.95043 0.77133,-3.85955 -2.96875,0.96875 -5.047615,6.5163 -8.503415,7.01828 -6.624997,0.96875 1.282519,-4.13044 1.167134,-4.18335 -2.28125,-1.25 -2.015547,1.7145 -4.704657,3.68906 -5.96875,4.40625 -2.821536,1.60082 -5.373103,-1.89131 -2.625,-3.59375 1.082152,-0.67037 2.925672,-3.03102 4.09375,-5.21875 1.880624,-3.52229 1.657299,-3.83113 -1.9375,-2.6875 -5.212317,1.65823 -5.329887,-2.03712 -0.15625,-4.8125 4.691328,-2.51665 5.237569,-6.26216 0.65625,-4.5 -2.142259,0.824 -2.784267,0.50596 -1.875,-0.96875 1.779492,-2.88607 21.038597,-8.81057 27.218747,-8.84375 z m 183.5,0 c 6.18015,0.0332 25.43924,5.95768 27.21875,8.84375 0.90926,1.47471 0.26727,1.79275 -1.875,0.96875 -4.58131,-1.76216 -4.03508,1.98335 0.65625,4.5 5.22237,2.80152 5.02936,6.49206 -0.25,4.8125 -4.4126,-1.40381 -3.92508,0.65196 1.65625,7.1875 4.31646,5.05444 -0.30785,6.02226 -6.28125,1.3125 l -5.3125,-4.21875 1.3125,4.25 c 1.86887,5.90222 -1.64035,5.27876 -6.625,-1.15625 -3.74007,-4.8283 -4.05335,-4.91918 -2.96875,-0.96875 0.68168,2.48286 0.34722,4.375 -0.78125,4.375 -2.81014,0 -10.68131,-27.3448 -8.5,-29.53125 0.261,-0.26162 0.86712,-0.37974 1.75,-0.375 z m -98.65625,11.34375 c 0.33541,-0.11845 0.77332,0.41915 2.59375,2.34375 2.91268,3.07936 3.75,3.96875 3.75,3.96875 0,0 0.14562,-0.006 2.71875,-3.15625 2.57313,-3.1506 2.68591,-3.72466 3.78125,-2.59375 1.09534,1.13091 1.02016,0.79544 -1.6875,4.5 -2.70766,3.70456 -2.8125,4.15625 -2.8125,4.15625 0,0 -0.11066,0.18178 3.53125,4.09375 3.64191,3.91197 2.72241,3.19347 1.78125,4.375 -0.94116,1.18153 -1.21825,0.95114 -3.40625,-1.5 -2.188,-2.45114 -3.8598,-4.71505 -3.8125,-4.65625 0,0 -1.29793,1.02989 -3.40625,4.15625 -2.10832,3.12636 -1.77237,3.13825 -3,2.25 -1.22763,-0.88824 -1.29967,-0.64108 0.59375,-3.21875 1.89342,-2.57767 3.90625,-5.5625 3.90625,-5.5625 0,0 -1.10567,-1.22545 -3.78125,-4.28125 -2.67558,-3.0558 -2.59074,-3.0678 -1.53125,-4.09375 0.39731,-0.38473 0.58,-0.71015 0.78125,-0.78125 z m 0.25,20.25 c 0.33541,-0.11845 0.77332,0.41915 2.59375,2.34375 2.91268,3.07936 3.75,3.96875 3.75,3.96875 0,0 0.14562,-0.006 2.71875,-3.15625 2.57313,-3.1506 2.68591,-3.72466 3.78125,-2.59375 1.09534,1.13091 1.02016,0.79544 -1.6875,4.5 -2.70766,3.70456 -2.8125,4.15625 -2.8125,4.15625 0,0 -0.11066,0.18178 3.53125,4.09375 3.64191,3.91197 2.72241,3.19347 1.78125,4.375 -0.94116,1.18153 -1.21825,0.95114 -3.40625,-1.5 -2.188,-2.45114 -3.8598,-4.71505 -3.8125,-4.65625 0,0 -1.29793,1.02989 -3.40625,4.15625 -2.10832,3.12636 -1.77237,3.13825 -3,2.25 -1.22763,-0.88824 -1.29967,-0.64108 0.59375,-3.21875 1.89342,-2.57767 3.90625,-5.5625 3.90625,-5.5625 0,0 -1.10567,-1.22545 -3.78125,-4.28125 -2.67558,-3.0558 -2.59074,-3.0678 -1.53125,-4.09375 0.39731,-0.38473 0.58,-0.71015 0.78125,-0.78125 z m 0,21.5 c 0.33541,-0.11845 0.77332,0.41915 2.59375,2.34375 2.91268,3.07936 3.75,3.96875 3.75,3.96875 0,0 0.14562,-0.006 2.71875,-3.15625 2.57313,-3.1506 2.68591,-3.72466 3.78125,-2.59375 1.09534,1.13091 1.02016,0.79544 -1.6875,4.5 -2.70766,3.70456 -2.8125,4.15625 -2.8125,4.15625 0,0 -0.11066,0.18178 3.53125,4.09375 3.64191,3.91197 2.72241,3.19347 1.78125,4.375 -0.94116,1.18153 -1.21825,0.95114 -3.40625,-1.5 -2.188,-2.45114 -3.8598,-4.71505 -3.8125,-4.65625 0,0 -1.29793,1.02989 -3.40625,4.15625 -2.10832,3.12636 -1.77237,3.13825 -3,2.25 -1.22763,-0.88824 -1.29967,-0.64108 0.59375,-3.21875 1.89342,-2.57767 3.90625,-5.5625 3.90625,-5.5625 0,0 -1.10567,-1.22545 -3.78125,-4.28125 -2.67558,-3.0558 -2.59074,-3.0678 -1.53125,-4.09375 0.39731,-0.38473 0.58,-0.71015 0.78125,-0.78125 z m 24.4375,-6.5625 c -0.41877,-0.0765 -0.69722,7.13333 -1.28125,24.34375 -0.56436,16.63114 -0.73493,30.91401 -0.375,31.71875 0.83091,1.85773 1.107,1.84699 6.9375,-0.375 l 4.84375,-1.84375 -3.71875,-7.34375 c -2.05555,-4.04138 -3.75,-10.56561 -3.75,-14.46875 0,-3.90316 -0.66591,-14.02254 -1.46875,-22.5 -0.56844,-6.0024 -0.90097,-9.47894 -1.1875,-9.53125 z m -35.375,0.46875 c -0.25239,0.0969 -0.55212,1.97787 -0.96875,5.34375 -0.7969,6.43786 -1.54008,16.5885 -1.65625,22.53125 -0.1257,6.42941 -1.74155,13.7774 -3.96875,18.15625 l -3.71875,7.34375 4.21875,1.71875 c 5.57077,2.24164 8.16773,1.39503 7.96875,-2.59375 -0.0892,-1.78831 -0.44546,-15.77258 -0.78125,-31.0625 -0.33516,-15.26119 -0.61192,-21.62249 -1.09375,-21.4375 z m 10.6875,27.34375 c 0.33541,-0.11845 0.77332,0.41915 2.59375,2.34375 2.91268,3.07936 3.75,3.96875 3.75,3.96875 0,0 0.14562,-0.006 2.71875,-3.15625 2.57313,-3.1506 2.68591,-3.72466 3.78125,-2.59375 1.09534,1.13091 1.02016,0.79544 -1.6875,4.5 -2.70766,3.70456 -2.8125,4.15625 -2.8125,4.15625 0,0 -0.11413,-0.1284 3.78125,3.53125 2.76691,2.59947 2.62866,2.00597 1.6875,3.1875 -0.94116,1.18153 -1.03075,0.95114 -3.21875,-1.5 -3.77899,-3.42341 -4.07097,-3.60587 -4.02367,-3.54707 0,0 -0.24707,-0.16768 -3.19508,3.04707 -2.54858,2.77918 -1.77237,3.13825 -3,2.25 -1.22763,-0.88824 -1.5277,-0.82524 0.59375,-3.21875 3.44022,-3.8814 3.49621,-3.76831 3.49621,-3.76831 0,0 -1.03938,-1.26964 -3.71496,-4.32544 -2.67558,-3.0558 -2.59074,-3.0678 -1.53125,-4.09375 0.39731,-0.38473 0.58,-0.71015 0.78125,-0.78125 z m -5.96875,35.9375 c 4.09179,-0.10372 7.0109,2.95334 8.8125,9.25 1.37971,4.8221 1.14396,6.72352 -0.96875,8.0625 -3.47932,2.20509 -5.81015,1.482 -8.375,-2.59375 -2.65086,-4.21239 -0.15669,-6.58342 3.625,-3.4375 3.44897,2.86917 3.82585,1.3824 0.96875,-3.96875 -2.8409,-5.32081 -7.4957,-4.71319 -9.78125,1.3125 -1.36832,3.60742 -1.25416,5.94508 0.34375,7.875 2.84745,3.43906 1.26735,5.33721 -1.84375,2.21875 -1.2667,-1.26969 -2.28125,-5.24867 -2.28125,-8.8125 0,-5.07055 1.07418,-6.95705 5,-8.75 1.62458,-0.74196 3.13607,-1.12168 4.5,-1.15625 z m 25.75,0 c 1.36393,0.0346 2.87542,0.4143 4.5,1.15625 3.95926,1.80822 5,3.67309 5,8.90625 0,3.64703 -1.30057,7.72676 -2.90625,9.0625 -3.27055,2.72072 -4.0542,-0.0321 -0.90625,-3.1875 2.75245,-2.75895 -0.98846,-12.40625 -4.8125,-12.40625 -1.59451,0 -3.82939,1.70585 -4.9375,3.78125 -2.8571,5.35115 -2.48022,6.83792 0.96875,3.96875 3.78169,-3.14592 6.27586,-0.77489 3.625,3.4375 -2.56485,4.07575 -4.89568,4.79884 -8.375,2.59375 -2.11271,-1.33898 -2.34846,-3.2404 -0.96875,-8.0625 1.8016,-6.29666 4.72071,-9.35372 8.8125,-9.25 z m -40.71875,19.125 c 1.60567,0 4.50001,1.7603 6.4375,3.90625 1.93748,2.14596 4.61226,3.90625 5.9375,3.90625 3.21727,0 4.38888,3.80684 2.9375,9.59375 -1.90886,7.61096 -5.24003,6.80426 -8.8125,-2.1875 -1.82952,-4.60477 -4.69322,-9.93479 -6.375,-11.8125 -2.66284,-2.97303 -2.66731,-3.40625 -0.125,-3.40625 z m 55.6875,0 c 2.54232,0 2.53782,0.43322 -0.125,3.40625 -1.68179,1.87771 -4.53206,7.1586 -6.34375,11.71875 -4.24227,10.67807 -7.72892,10.88105 -8.875,0.5 -0.61924,-5.60911 0.18108,-7.8125 2.78125,-7.8125 1.43977,0 4.18752,-1.76029 6.125,-3.90625 1.93749,-2.14595 4.83183,-3.90625 6.4375,-3.90625 z m -27.84375,1.96875 c 1.33475,0 3.33437,4.80773 4.5625,10.9375 1.92324,9.59917 1.79228,11.47558 -1.21875,15.3125 l -3.4375,4.375 -3.34375,-4.4375 c -2.88527,-3.83411 -3.01895,-5.85956 -1.125,-15.3125 1.2219,-6.09867 3.22894,-10.875 4.5625,-10.875 z m -11.96875,28.28125 -5.46875,9.75 c -6.7728,12.09841 -8.07303,13.55594 -9.6875,10.9375 -1.74858,-2.83593 1.24258,-7.85845 8.8125,-14.84375 z m 23.9375,0 6.34375,5.84375 c 3.48834,3.21894 7.235,7.47585 8.3125,9.46875 1.27911,2.36579 1.30752,4.28329 0.0625,5.53125 -1.0488,1.05129 -2.34051,1.17949 -2.84375,0.28125 -0.50326,-0.89821 -3.36121,-6.01012 -6.375,-11.375 z m -19.375,5.53125 c 0.74234,0.0119 1.2577,0.75042 1.84375,2.28125 0.82612,2.15792 0.12432,4.06219 -1.9375,5.21875 -1.78015,0.99858 -5.28642,5.8294 -7.78125,10.75 -3.30579,6.52009 -4.84842,8.11714 -5.71875,5.84375 -1.25024,-3.26577 6.43083,-18.78275 11.3125,-22.84375 0.99625,-0.82877 1.70387,-1.25926 2.28125,-1.25 z m 15.09375,0.25 c 2.08475,0.11409 5.25937,4.10264 9.75,12.15625 3.11397,5.58465 4.31493,9.86078 3.3125,11.65625 -1.17492,2.10442 -2.49148,0.74281 -5.1875,-5.25 -1.99375,-4.43178 -5.32225,-9.25562 -7.40625,-10.71875 -2.40242,-1.68669 -3.35633,-3.8327 -2.5625,-5.90625 0.42559,-1.11169 0.99776,-1.76357 1.6875,-1.90625 0.12933,-0.0267 0.26727,-0.0389 0.40625,-0.0312 z m -63.8125,0.0625 c 23.37781,-0.006 29.09135,0.50529 27.5,2.4375 -1.41806,1.7218 -9.52267,2.44755 -27.5625,2.46875 -27.14288,0.0317 -32.85564,1.42721 -29.3125,7.125 2.4922,4.00776 6.6875,5.75343 6.6875,2.78125 0,-1.16239 -1.36241,-2.125 -3.03125,-2.125 -1.66885,0 -2.50532,-0.89578 -1.84375,-1.96875 0.66158,-1.07298 2.94492,-1.9375 5.09375,-1.9375 3.11391,0 3.80334,1.09909 3.3125,5.375 -0.67756,5.90251 -5.90375,7.76884 -11.8125,4.25 -4.00796,-2.38687 -4.69946,-14.40386 -0.96875,-16.8125 1.33806,-0.86389 15.71007,-1.58975 31.9375,-1.59375 z m 112.25,0 c 16.22743,0.004 30.59944,0.72986 31.9375,1.59375 3.96639,2.5608 3.04018,14.54 -1.3125,16.875 -7.5734,4.06273 -11.8125,2.23106 -11.8125,-5.125 0,-3.2053 1.1212,-4.5625 3.78125,-4.5625 2.07772,0 4.30717,0.86452 4.96875,1.9375 0.66157,1.07297 -0.17491,1.96875 -1.84375,1.96875 -1.66885,0 -3.03125,0.96261 -3.03125,2.125 0,2.97218 4.19529,1.22651 6.6875,-2.78125 3.54315,-5.69779 -2.16962,-7.0932 -29.3125,-7.125 -18.03983,-0.0211 -26.14444,-0.74695 -27.5625,-2.46875 -1.59135,-1.93221 4.12219,-2.4435 27.5,-2.4375 z m -11.37503,10.9375 c 2.31327,-0.0265 5.19316,0.0586 8.84375,0.1875 10.78154,0.38069 16.43183,1.40557 16.96875,3.03125 0.59914,1.81405 -3.14832,2.4375 -14.65625,2.4375 -17.90579,0 -23.13707,2.79087 -27.40625,14.625 -2.14588,5.94832 -2.18284,8.14183 -0.15625,11.9375 1.36562,2.5577 3.63771,4.65625 5.0625,4.65625 3.76728,0 3.19217,4.70298 -1.0625,8.5625 -2.02078,1.83309 -8.17241,5.03639 -13.65625,7.125 -5.48385,2.08863 -14.11435,3.76885 -19.1875,3.71875 -10.03125,-0.0992 -25.99161,-5.5351 -31.84375,-10.84375 -4.2566,-3.86127 -4.83058,-8.5625 -1.0625,-8.5625 1.42479,0 3.69687,-2.09855 5.0625,-4.65625 2.02658,-3.79567 1.98962,-5.98918 -0.15625,-11.9375 -4.26919,-11.83413 -9.50046,-14.625 -27.40625,-14.625 -11.50793,0 -15.25539,-0.62345 -14.65625,-2.4375 0.53693,-1.62568 6.1872,-2.65056 16.96875,-3.03125 3.65059,-0.12889 6.53218,-0.18237 8.84375,-0.15625 6.93474,0.0784 8.8895,1.03365 12.125,4.0625 10.1287,9.48175 13.0157,22.53499 7.375,33.375 -2.83518,5.44851 -2.82065,5.50372 5.34375,9.21875 5.17459,2.3546 12.5533,3.75 19.90625,3.75 7.35295,0 14.73166,-1.3954 19.90625,-3.75 8.1644,-3.71503 8.17893,-3.77024 5.34375,-9.21875 -5.6407,-10.84001 -2.7537,-23.89325 7.375,-33.375 3.23551,-3.02887 5.18518,-4.01414 12.125,-4.09375 z m -43.7499,-0.59369 c 0.005,0.14914 0,0 4,-1 -4,4 0,0 -4,4 0.0735,2.84828 3e-4,12.3665 0,14 l 6,-6 c 1,1 0,0 1,1 l -6.00003,7 7.00003,8 -1,1 -7.00003,-7 c 0,0 -0.007,4.17955 -0.0313,8.34364 -0.0244,4.16409 0.0313,5.65636 0.0313,6.65636 l 4,0 0,2 -4,0 c 3e-5,2 3e-5,5 -1,7 -0.99997,-2 -0.99997,-5 -1,-7 l -4,0 0,-2 c 0.30106,-0.0589 3.42092,0 4,0 0,-1 0.0468,-4.21888 0.0312,-6.81257 -0.0156,-2.59369 -0.0312,-2.18739 -0.0312,-8.18739 l -5.99997,7 c -1,-1 0,0 -1,-1 l 5.99997,-8 -5.99997,-7 c 0.5,-0.5 0,0 1,-1 l 6,6 c 0,-3.82752 -2e-5,-8.33702 0,-14 -4,-4 0,0 -4,-4 4,1 3.97791,1.12221 4,1 0.0497,-0.18917 1,-5 1,-5 0,0 0.99008,4.70174 1,5 z m -12.12505,14.03119 c 0.0621,-0.0147 0.12702,-0.005 0.1875,0 1.69349,0.13567 2.19473,7.06448 0.34375,10.53125 -1.9741,3.69736 -1.70006,5.61072 1.6875,11.65625 2.2246,3.97007 4.03125,7.62115 4.03125,8.125 0,1.06399 -7.34391,0.85511 -11.78125,-0.34375 -2.72876,-0.73723 -2.68973,-2.28336 0.46875,-14.75 1.93701,-7.64546 3.95464,-14.29718 4.46875,-14.8125 0.21565,-0.21616 0.40739,-0.36227 0.59375,-0.40625 z m 22.0625,0 c 0.24193,-0.0194 0.49372,0.11804 0.78125,0.40625 0.5141,0.51532 2.5395,7.16642 4.46875,14.78125 3.49133,13.78042 3.48301,13.83388 -0.5,14.90625 -4.93701,1.32922 -10.8125,1.45 -10.8125,0.21875 0,-0.50385 1.80665,-4.15493 4.03125,-8.125 3.38756,-6.04553 3.6616,-7.95889 1.6875,-11.65625 -1.85098,-3.46677 -1.34974,-10.39558 0.34375,-10.53125 z m -44.59375,39.03125 c 5.42745,0 15.15625,7.35782 15.15625,11.46875 0,2.3355 -5.49201,8.03125 -7.75,8.03125 -3.80361,0 -7.8125,-2.54643 -7.8125,-4.96875 0,-3.93291 3.71476,-5.40496 6.90625,-2.75 3.39942,2.82794 3.82863,-0.25726 0.5,-3.59375 -3.3095,-3.31732 -8.71587,-2.89953 -10.125,0.78125 -1.84499,4.81932 3.15998,13.39946 8.25,14.125 4.60967,0.65708 11.97735,-4.41715 12.03125,-8.28125 0.0537,-3.85137 3.3681,-7.54691 5.5625,-6.1875 2.84841,1.76458 -4.25307,15.87737 -9.375,18.625 -6.56892,3.5239 -13.21859,2.30812 -17.53125,-3.1875 -8.78689,-11.19712 -6.55836,-24.0625 4.1875,-24.0625 z m 67.3125,0 c 10.74586,0 12.97439,12.86538 4.1875,24.0625 -4.30584,5.48692 -11.62386,6.76099 -17.90625,3.09375 -4.93277,-2.8794 -11.71543,-16.84906 -9,-18.53125 2.1944,-1.35941 5.5088,2.33613 5.5625,6.1875 0.0539,3.8641 7.42158,8.93833 12.03125,8.28125 5.09002,-0.72554 10.09499,-9.30568 8.25,-14.125 -1.40913,-3.68078 -6.8155,-4.09857 -10.125,-0.78125 -3.32863,3.33649 -2.89942,6.42169 0.5,3.59375 3.19149,-2.65496 6.90625,-1.18291 6.90625,2.75 0,2.42232 -4.00889,4.96875 -7.8125,4.96875 -2.25799,0 -7.75,-5.69575 -7.75,-8.03125 0,-4.11093 9.7288,-11.46875 15.15625,-11.46875 z m -33.65625,9.75 c 2.93085,0 4.81638,2.02491 6.65625,7.125 1.40998,3.90845 6.40122,10.95263 11.09375,15.65625 4.69252,4.70361 8.53125,10.28611 8.53125,12.4375 0,4.7552 -5.5936,7.35636 -7.875,3.65625 -0.90421,-1.4665 -2.30407,-2.01028 -3.09375,-1.21875 -0.78968,0.79156 -0.39169,2.4803 0.875,3.75 5.96077,5.97484 -0.3639,14.3874 -6.8125,9.0625 -2.89827,-2.39324 -3.06505,-2.10174 -1.8125,2.9375 1.00003,4.0234 0.44704,6.6088 -1.9375,9.25 -1.82356,2.0197 -4.35114,3.6875 -5.625,3.6875 -4.83954,0 -9.00727,-7.1249 -7.5625,-12.9375 1.25255,-5.03924 1.08577,-5.33074 -1.8125,-2.9375 -6.4486,5.3249 -12.77327,-3.08766 -6.8125,-9.0625 1.26669,-1.2697 1.66468,-2.95844 0.875,-3.75 -0.78968,-0.79153 -2.18954,-0.24775 -3.09375,1.21875 -2.2814,3.70011 -7.875,1.09895 -7.875,-3.65625 0,-2.15139 3.83873,-7.73389 8.53125,-12.4375 4.69253,-4.70362 9.68378,-11.7478 11.09375,-15.65625 1.83988,-5.10009 3.7254,-7.125 6.65625,-7.125 z"
       id="path3014"
       style="fill:#000000" />
  </g>
</svg>
