<svg viewBox="0 0 32 32" xmlns="http://www.w3.org/2000/svg"><path fill="currentColor" d="M30.79 20.247v-1.813c-3.349-1.335-5.321-2.581-5.928-4.568-0.498-1.631 1.004-3.801 3.836-6.416-2.958 1.621-5.135 2.722-5.997 1.185-0.774-1.38 0.093-3.966 1.464-7.357h-0.976c-1.094 1.731-2.025 3.044-2.371 2.72-0.301-0.283-0.305-1.301-0.174-2.72l-2.022-0.001c-1.338 2.997-2.757 4.695-4.812 4.986-1.756 0.249-4.029-1.814-6.59-4.742 1.458 2.894 1.994 5.215 1.011 5.788-1.162 0.678-3.491-0.121-6.939-1.569v0.662c2.372 1.506 4.557 2.975 4.149 3.522-0.358 0.48-1.992 0.397-4.149 0.105v1.709c3.121 1.576 4.812 3.193 4.812 4.707 0 1.302-2.601 3.961-4.812 6.067v1.011c1.995-0.654 4.443-0.908 5.265 0.558 0.839 1.495 0.276 3.611-0.802 6.695h1.848c1.958-2.645 3.819-4.766 4.812-4.672 0.703 0.066 0.375 2.225-0.105 4.672h0.558c1.743-4.845 3.892-7.814 7.078-7.706 2.796 0.096 5.449 2.91 8.368 4.916-1.526-1.867-4.337-4.526-3.731-5.021 0.637-0.521 3.367 0.432 6.207 1.464v-0.907c-1.863-1.271-3.576-2.492-3.138-2.929 0.394-0.393 1.596-0.456 3.138-0.349z"/></svg>